<?xml version="1.0" encoding="UTF-8"?>
<svg id="Layer_1" data-name="Layer 1" xmlns="http://www.w3.org/2000/svg" width="411.88" height="411.88" viewBox="0 0 411.88 411.88">
  <defs>
    <style>
      .cls-1 {
        fill: #231f20;
        font-family: Poppins-Black, Poppins;
        font-size: 72px;
      }
    </style>
  </defs>
  <text class="cls-1" transform="translate(146.47 71.65) rotate(-13.2)"><tspan x="0" y="0">C</tspan></text>
  <text class="cls-1" transform="translate(195.83 60.21) rotate(4.98)"><tspan x="0" y="0">o</tspan></text>
  <text class="cls-1" transform="translate(238.2 63.04) rotate(22.61)"><tspan x="0" y="0">n</tspan></text>
  <text class="cls-1" transform="translate(281.31 81.88) rotate(37.53)"><tspan x="0" y="0">t</tspan></text>
  <text class="cls-1" transform="translate(304.91 98.15) rotate(52.15)"><tspan x="0" y="0">a</tspan></text>
  <text class="cls-1" transform="translate(333 134.08) rotate(69.14)"><tspan x="0" y="0">c</tspan></text>
  <text class="cls-1" transform="translate(347.21 172.52) rotate(82.97)"><tspan x="0" y="0">t</tspan></text>
  <text class="cls-1" transform="translate(350.3 201.92) rotate(90.93)"><tspan x="0" y="0"> </tspan></text>
  <text class="cls-1" transform="translate(354.12 211.87) rotate(105.61)"><tspan x="0" y="0">M</tspan></text>
  <text class="cls-1" transform="translate(335.41 273.42) rotate(126.31)"><tspan x="0" y="0">e</tspan></text>
  <text class="cls-1" transform="translate(309.5 306.59) rotate(136.6)"><tspan x="0" y="0"> </tspan></text>
  <text class="cls-1" transform="translate(301.32 314.37) rotate(141.06)"><tspan x="0" y="0"> </tspan></text>
  <text class="cls-1" transform="translate(292.57 321.49) rotate(145.52)"><tspan x="0" y="0"> </tspan></text>
  <text class="cls-1" transform="translate(283.29 327.91) rotate(149.99)"><tspan x="0" y="0"> </tspan></text>
  <text class="cls-1" transform="translate(273.57 333.57) rotate(154.47)"><tspan x="0" y="0"> </tspan></text>
  <text class="cls-1" transform="translate(265.64 340.12) rotate(166.7)"><tspan x="0" y="0">C</tspan></text>
  <text class="cls-1" transform="translate(216.3 351.64) rotate(-175.12)"><tspan x="0" y="0">o</tspan></text>
  <text class="cls-1" transform="translate(173.91 348.89) rotate(-157.49)"><tspan x="0" y="0">n</tspan></text>
  <text class="cls-1" transform="translate(130.77 330.12) rotate(-142.57)"><tspan x="0" y="0">t</tspan></text>
  <text class="cls-1" transform="translate(107.14 313.89) rotate(-127.95)"><tspan x="0" y="0">a</tspan></text>
  <text class="cls-1" transform="translate(78.99 278.01) rotate(-110.96)"><tspan x="0" y="0">c</tspan></text>
  <text class="cls-1" transform="translate(64.71 239.58) rotate(-97.12)"><tspan x="0" y="0">t</tspan></text>
  <text class="cls-1" transform="translate(61.56 210.19) rotate(-89.07)"><tspan x="0" y="0"> </tspan></text>
  <text class="cls-1" transform="translate(57.73 200.26) rotate(-74.49)"><tspan x="0" y="0">M</tspan></text>
  <text class="cls-1" transform="translate(76.34 138.68) rotate(-53.79)"><tspan x="0" y="0">e</tspan></text>
</svg>